<?xml version="1.0" encoding="utf-8"?>
<!-- Generator: Adobe Illustrator 19.2.0, SVG Export Plug-In . SVG Version: 6.00 Build 0)  -->
<svg version="1.1" id="Layer_1" xmlns="http://www.w3.org/2000/svg" xmlns:xlink="http://www.w3.org/1999/xlink" x="0px" y="0px"
	 viewBox="0 0 1450 330.6" style="enable-background:new 0 0 1450 330.6;" xml:space="preserve">
<style type="text/css">
	.st0{fill:#01574A;}
	.st1{fill:#EB4D4D;}
	.st2{fill:#D72F44;}
	.st3{fill:#FE390E;}
	.st4{fill:#E44249;}
	.st5{fill:#9C5D40;}
	.st6{fill:#D22B43;}
	.st7{fill:#E83145;}
</style>
<path class="st0" d="M1445.8,203.1c2.6,0,4.2,1.5,4.2,3.8c0,2.7-2.5,5.3-5.1,5.3c-2.3,0-4-2-4-4.6C1441,205,1443,203.1,1445.8,203.1
	z"/>
<path class="st1" d="M1229.3,296.3c1.9,1,3,3,2.1,5.5c-0.8,2.2-3.1,4-5.3,3.8c-1.9-0.1-4.5-1.5-4.8-3.7c-0.4-2,1.8-5.8,3.8-6.4
	c0.5-0.2,1.2-0.1,1.7-0.1C1227.7,295.6,1228.6,295.9,1229.3,296.3z"/>
<path class="st2" d="M843.5,290.1c2,0,3.6,1.8,3.6,3.9c0,2.6-1.7,4.8-3.7,4.9c-2.2,0-4.4-2.2-4.4-4.5
	C838.9,292.3,841.1,290.1,843.5,290.1z"/>
<path class="st3" d="M1036.8,174.2c0,2.3-1.8,4.1-4.1,4.1c-2.4,0-4.2-1.8-4.1-4.2c0-2.3,1.9-4.1,4.2-4
	C1035,170.1,1036.8,171.9,1036.8,174.2z"/>
<path class="st4" d="M193.9,297.8c0,1.8-2,3.7-3.9,3.7c-1.8,0-3.6-1.9-3.6-3.8c0-1.8,1.9-3.6,3.7-3.6S193.9,296,193.9,297.8z"/>
<path class="st5" d="M84.4,247.5c0,1.9-1.7,3.8-3.6,3.9c-1.7,0-3.7-1.5-3.6-3c0-1.5,3-3.9,4.9-3.8C83.5,244.6,84.5,245.8,84.4,247.5
	z"/>
<path class="st6" d="M331.3,283.7c-1.9,0-3.2-1.3-3.2-3.1c0-1.8,1.2-3.2,2.7-3.3c1.6,0,3.6,2.1,3.6,3.8
	C334.3,282.5,333,283.7,331.3,283.7z"/>
<path class="st7" d="M481.1,168.1c-1.7,0-3.3-1.6-3.2-3.5c0-1.3,1-2.1,2.3-2.1c1.8,0,4.1,1.5,4.2,2.9
	C484.4,166.6,482.7,168.1,481.1,168.1z"/>
</svg>
