<?xml version="1.0" encoding="utf-8"?>
<!-- Generator: Adobe Illustrator 19.2.0, SVG Export Plug-In . SVG Version: 6.00 Build 0)  -->
<svg version="1.1" id="Layer_1" xmlns="http://www.w3.org/2000/svg" xmlns:xlink="http://www.w3.org/1999/xlink" x="0px" y="0px"
	 viewBox="0 0 1450 330.6" style="enable-background:new 0 0 1450 330.6;" xml:space="preserve">
<style type="text/css">
	.st0{fill:#EE3E49;}
	.st1{fill:#7E5008;}
	.st2{fill:#CB5C20;}
	.st3{fill:#FD1B3C;}
	.st4{fill:#140236;}
	.st5{fill:#B22E44;}
	.st6{fill:#E9624B;}
	.st7{fill:#EE504E;}
	.st8{fill:#01464C;}
	.st9{fill:#FB0C17;}
</style>
<path class="st0" d="M1301.3,177.3c0-2.5,2.3-4.8,4.7-4.7c2.5,0.1,4.8,2.3,4.8,4.8s-2.3,4.8-4.8,4.7
	C1303.5,182.1,1301.3,179.8,1301.3,177.3z"/>
<path class="st1" d="M942.5,147c0-2.6,1.4-4.4,3.6-4.4c2.5,0,4.7,2.1,4.7,4.6c0,2.4-2.1,4.6-4.5,4.7
	C944.1,151.9,942.5,149.8,942.5,147z"/>
<path class="st2" d="M1213,222.8c-2.6,0-4.5-1.5-4.5-3.5c0-2.4,2.2-4.7,4.6-4.7s4.6,2.1,4.6,4.5
	C1217.7,221.3,1215.7,222.8,1213,222.8z"/>
<path class="st3" d="M242.7,88.6c1.8,0,3,1.1,3,3c0,1.9-0.6,3.7-1.8,5.1c-1.1,1.3-2.5,1.4-3.9,0.4c-1.7-1.2-2.6-3.5-2-5.4
	C238.5,89.9,240.5,88.6,242.7,88.6z"/>
<path class="st4" d="M361.1,295.6c2.1,0,3.6,1.5,3.6,3.6c0,2-1.2,3.3-3,3.3c-2.1,0-4.2-2-4.2-3.9
	C357.6,296.9,359.1,295.6,361.1,295.6z"/>
<path class="st5" d="M590.6,281c0-2,1.2-3.3,3-3.4c1.9,0,4.3,2.1,4.3,3.8c0,1.6-1.8,3.2-3.7,3.2C592.2,284.6,590.6,283,590.6,281z"
	/>
<path class="st6" d="M762.8,135.9c-0.9-0.3-1.8-0.5-2.5-1c-1.5-1.2-1.6-2.4-0.2-3.7c1.3-1.2,2.6-2.5,4.6-2.1c1.5,0.3,2.1,1.6,2,2.8
	c-0.1,1.5-0.9,3-2.5,3.6C763.7,135.7,763.2,135.8,762.8,135.9z"/>
<path class="st7" d="M144.4,299.6c-1.9,0.1-3-0.8-3.1-2.8c-0.1-1.8,2.2-4.2,3.9-4.2c1.3,0,3.1,2.2,3,3.7
	C148.1,298,146.3,299.6,144.4,299.6z"/>
<path class="st8" d="M1169,285.8c0,2.2-0.7,3.3-2.1,3.4c-1.7,0.1-3.6-1.7-3.6-3.5s1.6-3.6,3.2-3.6C1168.1,282,1169,283.3,1169,285.8
	z"/>
<path class="st9" d="M324.9,145.4c0,1.3-0.9,2.2-2.3,2.2c-1.4,0-2.6-1.1-2.6-2.5c0-1.3,1-2.5,2.1-2.5
	C323.4,142.6,324.9,144,324.9,145.4z"/>
</svg>
