<?xml version="1.0" encoding="utf-8"?>
<!-- Generator: Adobe Illustrator 19.2.0, SVG Export Plug-In . SVG Version: 6.00 Build 0)  -->
<svg version="1.1" id="Layer_5" xmlns="http://www.w3.org/2000/svg" xmlns:xlink="http://www.w3.org/1999/xlink" x="0px" y="0px"
	 viewBox="0 0 1450 492" style="enable-background:new 0 0 1450 492;" xml:space="preserve">
<style type="text/css">
	.st0{fill:#ED3F49;}
	.st1{fill:#375425;}
	.st2{fill:#014E51;}
	.st3{fill:#B7592E;}
	.st4{fill:#2D0D3A;}
	.st5{fill:#DA3645;}
</style>
<path class="st0" d="M1215,432.2c-2.3,0-4-1.7-4-4.3c-0.1-2.8,2.1-5.1,4.9-5.1c2.1,0,4.9,2.2,4.7,4
	C1220.5,429.4,1217.8,432.2,1215,432.2z"/>
<path class="st1" d="M1241.1,122.2c0.1-2.9,2.4-5.5,4.7-5.4c2.1,0.1,4.2,2.6,4.2,4.9c0,2.6-2.3,4.7-5,4.7
	C1242.6,126.3,1241.1,124.7,1241.1,122.2z"/>
<path class="st2" d="M1376.2,286.2c0,2.5-1.8,4.3-4.3,4.3c-2.4,0-4.4-2-4.3-4.4c0.1-2.3,2-4.2,4.3-4.3
	C1374.3,281.8,1376.2,283.7,1376.2,286.2z"/>
<path class="st3" d="M310.5,410.8c0-2.3,1.8-4.1,4.1-4c2.2,0,4.1,1.9,4.2,4.1c0,2.1-2.1,4.2-4.3,4.2
	C312.2,415,310.4,413.1,310.5,410.8z"/>
<path class="st4" d="M154.5,404.2c0,2-1.8,3.7-3.7,3.6c-2-0.1-3.7-1.9-3.6-3.7c0.1-1.9,1.9-3.6,3.8-3.6
	C152.9,400.5,154.5,402.3,154.5,404.2z"/>
<path class="st5" d="M309.1,295.3c-1.9,0-3.5-1.3-3.6-3c-0.1-1.8,2.5-4.5,4.3-4.5c1.5,0,3.2,2,3.2,3.8
	C312.9,293.5,311.1,295.2,309.1,295.3z"/>
</svg>
