<?xml version="1.0" encoding="utf-8"?>
<!-- Generator: Adobe Illustrator 19.2.0, SVG Export Plug-In . SVG Version: 6.00 Build 0)  -->
<svg version="1.1" id="Layer_1" xmlns="http://www.w3.org/2000/svg" xmlns:xlink="http://www.w3.org/1999/xlink" x="0px" y="0px"
	 viewBox="0 0 1450 492" style="enable-background:new 0 0 1450 492;" xml:space="preserve">
<style type="text/css">
	.st0{fill:#014C4F;}
	.st1{fill:#F14A4C;}
	.st2{fill:#565834;}
	.st3{fill:#014F51;}
	.st4{fill:#01494E;}
	.st5{fill:#735C4D;}
	.st6{fill:#EC504E;}
</style>
<path class="st0" d="M1079,261c3.5,0,6.3,2.6,6.3,6.1c0,3.4-2.8,6.2-6.3,6.2s-6.3-2.8-6.3-6.2S1075.5,261,1079,261z"/>
<path class="st1" d="M1420.2,342.9c0.3,3.2-3.1,5.7-5.6,5.7c-2.8-0.1-5.7-2.6-5.5-5.6c0.1-3.1,2.5-5.7,5.5-5.8
	C1417.7,337.2,1420.2,339.8,1420.2,342.9z"/>
<path class="st2" d="M86.9,452.9c0,2.3-1.6,4.1-3.9,4.1c-2.5,0-4.9-2.2-5-4.6c0-2.4,2.2-4.8,4.3-4.8
	C84.7,447.6,86.8,450.1,86.9,452.9z"/>
<path class="st3" d="M1241,451c2.5,0,4.4,1.8,4.4,4.2c0,2.4-2,4.4-4.4,4.4c-2.2,0-4.2-2-4.3-4.2C1236.7,453,1238.6,451,1241,451z"/>
<path class="st4" d="M299.1,217.1c0-2.3,1.7-4,3.9-4.1c2.2,0,4,1.8,4.1,4c0,2.2-1.8,4-4,4.1C300.8,221.1,299.1,219.3,299.1,217.1z"
	/>
<path class="st5" d="M862,457.1c-2.2,0-4.4-2.1-4.4-4.2s1.5-3.8,3.4-3.9c2.1-0.1,4.8,2.4,4.8,4.6C865.9,455.3,864,457,862,457.1z"/>
<path class="st6" d="M598.5,376.7c0.1,1.7-2,3.9-3.7,3.9c-1.8,0.1-3.8-1.8-3.9-3.7c-0.1-1.8,1.8-4,3.5-4.1
	C596.3,372.9,598.4,374.8,598.5,376.7z"/>
</svg>
