<?xml version="1.0" encoding="utf-8"?>
<!-- Generator: Adobe Illustrator 19.2.0, SVG Export Plug-In . SVG Version: 6.00 Build 0)  -->
<svg version="1.1" id="Layer_1" xmlns="http://www.w3.org/2000/svg" xmlns:xlink="http://www.w3.org/1999/xlink" x="0px" y="0px"
	 viewBox="0 0 1450 492" style="enable-background:new 0 0 1450 492;" xml:space="preserve">
<style type="text/css">
	.st0{fill:#A52442;}
	.st1{fill:#02400E;}
	.st2{fill:#CE5E38;}
	.st3{fill:#FE3218;}
	.st4{fill:#7E5833;}
	.st5{fill:#FE411C;}
	.st6{fill:#FE4C49;}
</style>
<path class="st0" d="M718.4,448.9c0-3.1,2.3-5.1,5.7-5.1c3.9,0,7.3,2.7,7.3,5.9c0,3.1-3.3,6.2-6.7,6.1
	C721.2,455.7,718.4,452.6,718.4,448.9z"/>
<path class="st1" d="M249.2,449.4c0,2.8-2,4.8-4.7,4.8c-2.5,0-4.7-2.1-4.7-4.6c0-2.6,2.2-4.8,4.8-4.8
	C247.2,444.7,249.2,446.8,249.2,449.4z"/>
<path class="st2" d="M969.4,389.9c0,2.3-2,4.3-4.4,4.2c-2.4,0-4.3-2.1-4.3-4.5c0-2.3,2.3-4.6,4.5-4.4
	C967.6,385.4,969.7,387.7,969.4,389.9z"/>
<path class="st3" d="M0,433.2c0-2.4,1.8-4.4,4.2-4.4c2.4,0,4.4,1.7,4.3,3.7c0,2.3-2.7,4.8-5,4.8C1.5,437.3,0,435.5,0,433.2z"/>
<path class="st4" d="M1444,378.5c-2,0-3.1-1.2-3.1-3.2c0-2.2,2.4-4.7,4.5-4.8c2.2,0,4.7,2.2,4.6,4.1
	C1449.9,376.7,1447,378.5,1444,378.5z"/>
<path class="st5" d="M488.1,354.5c0,2.3-1.5,4.3-3.4,4.3c-1.8,0-3.4-1.8-3.4-3.8c0-2,1.6-3.5,3.6-3.6
	C486.9,351.4,488,352.5,488.1,354.5z"/>
<path class="st6" d="M1208.4,386.2c0,1.8-1.2,3.2-3,3.2c-1.7,0-3.3-1.2-3.3-2.8c0-1.5,1.8-3,3.6-3.1
	C1206.9,383.4,1208.4,384.8,1208.4,386.2z"/>
</svg>
