<?xml version="1.0" encoding="utf-8"?>
<!-- Generator: Adobe Illustrator 19.2.0, SVG Export Plug-In . SVG Version: 6.00 Build 0)  -->
<svg version="1.1" id="Layer_1" xmlns="http://www.w3.org/2000/svg" xmlns:xlink="http://www.w3.org/1999/xlink" x="0px" y="0px"
	 viewBox="0 0 1450 330.6" style="enable-background:new 0 0 1450 330.6;" xml:space="preserve">
<style type="text/css">
	.st0{fill:#D45D29;}
	.st1{fill:#01521E;}
	.st2{fill:#FE3403;}
	.st3{fill:#D42942;}
	.st4{fill:#DD3746;}
	.st5{fill:#EB4D4D;}
	.st6{fill:#D75F2E;}
	.st7{fill:#FE5A4C;}
	.st8{fill:#DE6042;}
	.st9{fill:#AB5725;}
	.st10{fill:#6C5B53;}
</style>
<path class="st0" d="M541,72.1c0-3,2.4-5.3,5.4-5.3c2.7,0,5.2,2.6,5.3,5.3c0,2.7-2.7,5.4-5.5,5.3C543.3,77.4,541,75,541,72.1z"/>
<path class="st1" d="M68,129.3c0.1-2.8,2.3-4.9,5.2-4.7c2.9,0.1,4.9,2.3,4.8,5.3c-0.1,2.8-2.4,4.8-5.3,4.7
	C69.9,134.4,67.9,132.2,68,129.3z"/>
<path class="st2" d="M136.3,259.8c0,2.7-2.1,4.8-4.7,4.8c-2.6,0-4.7-2.2-4.7-4.8c0-2.6,2.1-4.7,4.8-4.7
	C134.4,255.1,136.3,257,136.3,259.8z"/>
<path class="st3" d="M856.3,163.8c-2.4,0-4.7-2.3-4.7-4.7c0-2.6,2.2-4.8,4.8-4.7c2.4,0,4.7,2.4,4.7,4.8
	C861,161.5,858.7,163.8,856.3,163.8z"/>
<path class="st4" d="M1189.1,192.1c2.6,0,4.9,2.1,4.9,4.4c0,2.4-3.2,5.2-5.8,5.1c-2.1-0.1-4.1-2.3-4.1-4.6
	C1184.1,194.5,1186.6,192.1,1189.1,192.1z"/>
<path class="st5" d="M443.9,280.3c0-2.6,1.7-4.7,3.8-4.7c2.3,0,4.9,2.6,4.9,4.9c0,2.3-2.6,4.9-4.8,4.9
	C445.6,285.4,443.9,283.2,443.9,280.3z"/>
<path class="st6" d="M1408.4,89.5c0-2.1,1.8-3.9,4.2-3.9c2.4,0,4.6,2.2,4.7,4.7c0,2.4-2,4.7-4,4.7
	C1411.1,95,1408.4,91.9,1408.4,89.5z"/>
<path class="st7" d="M392.7,182.9c-2.2,0-4.5-2.1-4.6-4.3c0-1.9,2.5-4.4,4.5-4.4c1.9,0,4.3,2.4,4.4,4.3
	C397.1,180.7,394.9,182.9,392.7,182.9z"/>
<path class="st8" d="M1398.7,251.2c0,2-2.1,3.9-4.2,3.9c-2.1,0-3.8-1.7-3.8-3.5c0-2,2.4-4.1,4.6-4.1
	C1397.2,247.5,1398.8,249.2,1398.7,251.2z"/>
<path class="st9" d="M1026.3,56.3c0,2.6-1.3,4.7-2.9,4.8c-1.7,0.1-3.8-2.1-3.8-4c0-2,2.2-4,4.2-4
	C1025.2,53.1,1026.3,54.5,1026.3,56.3z"/>
<path class="st10" d="M1161,293.4c0,1.7-1.5,3.3-3.2,3.3c-1.8,0-3.2-1.1-3.3-2.7c0-1.7,1.9-3.6,3.6-3.6
	C1159.8,290.5,1161,291.8,1161,293.4z"/>
</svg>
