<?xml version="1.0" encoding="utf-8"?>
<!-- Generator: Adobe Illustrator 19.2.0, SVG Export Plug-In . SVG Version: 6.00 Build 0)  -->
<svg version="1.1" id="Layer_1" xmlns="http://www.w3.org/2000/svg" xmlns:xlink="http://www.w3.org/1999/xlink" x="0px" y="0px"
	 viewBox="0 0 1450 492" style="enable-background:new 0 0 1450 492;" xml:space="preserve">
<style type="text/css">
	.st0{fill:#FE2A05;}
	.st1{fill:#6E5B4D;}
	.st2{fill:#FE2243;}
	.st3{fill:#E62C43;}
	.st4{fill:#6A0237;}
	.st5{fill:#FE413D;}
	.st6{fill:#A72642;}
	.st7{fill:#FD2626;}
	.st8{fill:#01521B;}
	.st9{fill:#48193F;}
</style>
<path class="st0" d="M927,414.2c-0.1-2.9,1.7-5.2,4-5.2c2.3,0,4.5,2.2,4.6,4.6c0.1,2.5-2.1,4.7-4.7,4.8
	C928.7,418.5,927.1,416.6,927,414.2z"/>
<path class="st1" d="M445.3,370.7c0,2.4-1.9,4.3-4.3,4.3c-2.4,0-4.5-2.1-4.5-4.4c0-2.3,2.1-4.4,4.4-4.4
	C443.4,366.2,445.3,368.1,445.3,370.7z"/>
<path class="st2" d="M76.7,401.4c2.5,0,4.3,1.5,4.3,3.6c0,2.4-2.1,4.5-4.4,4.6c-2.4,0-4.6-2.1-4.6-4.4C72,403,74,401.4,76.7,401.4z"
	/>
<path class="st3" d="M1376.5,298.6c0,2.7-1.8,4.9-4,4.9c-2.1,0-4-2-4-4.4c0-2.4,2-4.2,4.5-4.2C1375.1,295,1376.5,296.5,1376.5,298.6
	z"/>
<path class="st4" d="M1285.1,461.7c1.8,0,3.3,1,3.8,2.5c0.5,1.4,0,3.2-1.2,4.3c-1.2,1.1-2.6,1.1-3.6-0.2c-1-1.1-1.5-2.4-1.6-3.9
	C1282.5,462.6,1283.3,461.7,1285.1,461.7z"/>
<path class="st5" d="M159.1,216.5c-1.8,0-3.1-1.5-3.1-3.6c0-1.9,1.6-4,3.1-3.9c1.8,0.1,3.8,2.2,3.8,3.9
	C162.8,214.8,161,216.5,159.1,216.5z"/>
<path class="st6" d="M645.4,420c-2.1-0.1-3.7-1.5-3.6-3.2s1.8-3.1,3.6-3c1.7,0.1,3.2,1.8,3.1,3.5C648.5,419,647.2,420.1,645.4,420z"
	/>
<path class="st7" d="M289.1,452.5c-1.8,0-3.2-1.1-3.2-2.5c0-1.5,1.6-3,3.1-3c1.6,0,3,1.6,2.9,3.2
	C291.9,451.6,290.7,452.5,289.1,452.5z"/>
<path class="st8" d="M1143,297c0,1.5-0.7,2.4-1.8,2.4c-1.5,0-3.6-1.9-3.6-3.2c0-1.1,1.2-2,2.7-2C1141.9,294.2,1143,295.3,1143,297z"
	/>
<path class="st9" d="M802.4,243.8c0-1.4,1-2.5,2.4-2.4c1,0.1,2.1,0.3,2.2,1.7c0,1.1-1.7,2.7-2.9,2.8
	C803.1,245.8,802.5,245.1,802.4,243.8z"/>
</svg>
