<?xml version="1.0" encoding="utf-8"?>
<!-- Generator: Adobe Illustrator 19.2.0, SVG Export Plug-In . SVG Version: 6.00 Build 0)  -->
<svg version="1.1" id="Layer_9" xmlns="http://www.w3.org/2000/svg" xmlns:xlink="http://www.w3.org/1999/xlink" x="0px" y="0px"
	 viewBox="0 0 1450 330.6" style="enable-background:new 0 0 1450 330.6;" xml:space="preserve">
<style type="text/css">
	.st0{fill:#BA143A;}
	.st1{fill:#555F00;}
	.st2{fill:#792E45;}
	.st3{fill:#A12141;}
	.st4{fill:#D63445;}
	.st5{fill:#F20004;}
	.st6{fill:#025652;}
	.st7{fill:#023647;}
	.st8{fill:#670136;}
	.st9{fill:#FE5426;}
	.st10{fill:#AD5E52;}
	.st11{fill:#01552A;}
	.st12{fill:#C25F52;}
	.st13{fill:#FE6237;}
	.st14{fill:#CC5E36;}
</style>
<path class="st0" d="M934.8,276.8c0,1.9-1.5,3.4-3.3,3.4c-1.9,0-3.4-1.4-3.4-3.3s1.5-3.4,3.3-3.4
	C933.3,273.4,934.8,274.9,934.8,276.8z"/>
<path class="st1" d="M862.1,123.1c0.9-0.9,2.6-1.3,3.5-1.1c1.9,0.4,2.9,2.1,2.5,4c-0.3,1.7-2.1,2.9-3.9,2.5c-2.1-0.4-2.5-2.2-2.7-4
	c0-0.3,0-0.5,0-0.8C861.7,123.5,861.9,123.3,862.1,123.1z"/>
<path class="st2" d="M106.2,265c-1.8,0-3.3-1.5-3.3-3.3c0-1.9,1.6-3.4,3.4-3.4c1.7,0,3.3,1.7,3.3,3.3C109.6,263.5,108,265,106.2,265
	z"/>
<path class="st3" d="M43.1,301.6c1.7,0,3.1,1.4,3.1,3.1c0,1.7-1.4,3.1-3.1,3.1c-1.7,0-3.1-1.4-3.1-3.1C40,303,41.4,301.6,43.1,301.6
	z"/>
<path class="st4" d="M622,273.3c-1.6,0-3.2-1.5-3.2-3c0-1.6,1.2-3,2.7-3c1.7,0,3.8,1.9,3.7,3.5C625.1,272.2,623.7,273.4,622,273.3z"
	/>
<path class="st5" d="M1418.4,299.9c-1.6,0-2.9-1.2-2.8-2.8c0-1.5,1.2-2.8,2.8-2.8c1.6,0,2.9,1.2,2.9,2.8
	C1421.3,298.6,1420,299.9,1418.4,299.9z"/>
<path class="st6" d="M204.2,98.7c0-1.6,0.9-2.6,2.4-2.6c1.7,0,3.4,1.6,3.4,3.2c0,1.4-1.4,2.5-3,2.4
	C205.4,101.7,204.2,100.5,204.2,98.7z"/>
<path class="st7" d="M1251.9,118.5c0,1.6-1.3,2.9-2.9,2.9c-1.4,0-2.3-1.1-2.3-2.7c0-1.7,1.1-3.1,2.4-3.1
	C1250.5,115.6,1251.9,117,1251.9,118.5z"/>
<path class="st8" d="M830.8,264.6c0,1.6-0.9,2.6-2.3,2.6c-1.6,0-2.9-1.3-2.9-2.8c0-1.5,1.3-2.8,2.7-2.9
	C829.9,261.5,830.8,262.8,830.8,264.6z"/>
<path class="st9" d="M266.4,292.4c0,1.4-1,2.5-2.3,2.5c-1.5,0-3.3-1.7-3.2-2.9c0-1.1,1.4-2.3,2.7-2.3
	C265.1,289.6,266.4,290.9,266.4,292.4z"/>
<path class="st10" d="M494.6,295.6c0-1.4,1-2.5,2.4-2.6c1-0.1,1.8,0.4,2.3,1.2c0.5,0.7-0.1,1.3-0.4,1.9c-0.2,0.4-0.4,0.7-0.7,0.9
	c-0.6,0.7-1.3,1.3-2.3,1C495.2,297.7,494.6,296.6,494.6,295.6z"/>
<path class="st11" d="M1075.8,292c0,1.3-1,2.3-2.4,2.3c-1.4,0-2.4-1.1-2.4-2.4c0-1.3,1.1-2.3,2.5-2.3
	C1074.9,289.6,1075.8,290.6,1075.8,292z"/>
<path class="st12" d="M1138.6,189.6c1.3,0,2.5,1.2,2.5,2.4c0,1-1.2,2.4-2.1,2.4c-1.3,0-2.5-1.5-2.5-2.9
	C1136.5,190.5,1137.5,189.6,1138.6,189.6z"/>
<path class="st13" d="M1388.5,199.8c0-1.1,1.2-2.3,2.3-2.3c1,0,2.3,1.2,2.3,2.1c0,1-1.6,2.4-2.7,2.4
	C1389.4,202,1388.5,200.9,1388.5,199.8z"/>
<path class="st14" d="M361.4,223.4c0,0.9-0.8,1.7-1.8,1.7c-1.4,0-3.1-1-3.1-2c0-1,1.2-2,2.3-2.1C360.1,221,361.3,222.2,361.4,223.4z
	"/>
</svg>
