<?xml version="1.0" encoding="utf-8"?>
<!-- Generator: Adobe Illustrator 18.1.1, SVG Export Plug-In . SVG Version: 6.00 Build 0)  -->
<svg version="1.1" id="Layer_1" xmlns="http://www.w3.org/2000/svg" xmlns:xlink="http://www.w3.org/1999/xlink" x="0px" y="0px"
	 viewBox="0 0 100 100" enable-background="new 0 0 100 100" xml:space="preserve">
<path fill="#231F20" d="M70,41H28c-3.3,0-6-2.7-6-6v0c0-3.3,2.7-6,6-6h42c3.3,0,6,2.7,6,6v0C76,38.3,73.3,41,70,41z"/>
<path fill="#231F20" d="M70,55.7H28c-3.3,0-6-2.7-6-6v0c0-3.3,2.7-6,6-6h42c3.3,0,6,2.7,6,6v0C76,53,73.3,55.7,70,55.7z"/>
<path fill="#231F20" d="M70,70.3H28c-3.3,0-6-2.7-6-6v0c0-3.3,2.7-6,6-6h42c3.3,0,6,2.7,6,6v0C76,67.6,73.3,70.3,70,70.3z"/>
</svg>
