<?xml version="1.0" encoding="utf-8"?>
<!-- Generator: Adobe Illustrator 19.0.0, SVG Export Plug-In . SVG Version: 6.00 Build 0)  -->
<svg version="1.1" id="Layer_1" xmlns:sketch="http://www.bohemiancoding.com/sketch/ns"
	 xmlns="http://www.w3.org/2000/svg" xmlns:xlink="http://www.w3.org/1999/xlink" x="0px" y="0px" viewBox="-299 385 13 23"
	 style="enable-background:new -299 385 13 23;" xml:space="preserve">
<style type="text/css">
	.st0{fill:#FFEB99;}
</style>
<path class="st0" d="M-288,385h-9c0,0-2,0-2,2v18c0,2,2,2,2,2h9c0,0,2,0,2-2v-18C-286,385-288,385-288,385z M-295,386.2
	c0-0.1,0.1-0.2,0.2-0.2h4.6c0.1,0,0.2,0.1,0.2,0.2v0.1c0,0.1-0.1,0.2-0.2,0.2h-4.6C-294.9,386.5-295,386.4-295,386.2L-295,386.2z
	 M-292.5,406.2c-0.6,0-1-0.4-1-1c0-0.6,0.4-1,1-1s1,0.4,1,1C-291.5,405.8-291.9,406.2-292.5,406.2z M-287,403.5h-11v-16h11V403.5z"
	/>
</svg>
